HIERARCHY
ROOT Hips
{
	OFFSET 0.000000 0.000000 0.000000
	CHANNELS 6 Xposition Yposition Zposition Xrotation Yrotation Zrotation
	JOINT LeftUpLeg_virtual
	{
		OFFSET 0.000000 0.000000 0.000000
		CHANNELS 3 Xrotation Yrotation Zrotation
		JOINT LeftUpLeg
		{
			OFFSET 13.026900 -6.336304 -1.092800
			CHANNELS 3 Xrotation Yrotation Zrotation
			JOINT LeftLeg
			{
				OFFSET 0.524474 -46.096886 9.782700
				CHANNELS 3 Xrotation Yrotation Zrotation
				JOINT LeftFoot
				{
					OFFSET -0.524474 -53.427422 -12.948200
					CHANNELS 3 Xrotation Yrotation Zrotation
					JOINT LeftToeBase
					{
						OFFSET 0.192200 -14.009700 16.364100
						CHANNELS 3 Xrotation Yrotation Zrotation
						JOINT LeftToe_End
						{
							OFFSET -1.784700 -0.561700 9.474800
							CHANNELS 3 Xrotation Yrotation Zrotation
							End Site
							{
								OFFSET 0 0 0
							}
						}
					}
				}
			}
		}
	}
	JOINT RightUpLeg_virtual
	{
		OFFSET 0.000000 0.000000 0.000000
		CHANNELS 3 Xrotation Yrotation Zrotation
		JOINT RightUpLeg
		{
			OFFSET -12.883000 -6.336304 -1.092800
			CHANNELS 3 Xrotation Yrotation Zrotation
			JOINT RightLeg
			{
				OFFSET -0.524587 -46.096825 9.782800
				CHANNELS 3 Xrotation Yrotation Zrotation
				JOINT RightFoot
				{
					OFFSET 0.524587 -53.427383 -12.948300
					CHANNELS 3 Xrotation Yrotation Zrotation
					JOINT RightToeBase
					{
						OFFSET -0.192200 -14.009700 16.364100
						CHANNELS 3 Xrotation Yrotation Zrotation
						JOINT RightToe_End
						{
							OFFSET 1.784700 -0.561700 9.474800
							CHANNELS 3 Xrotation Yrotation Zrotation
							End Site
							{
								OFFSET 0 0 0
							}
						}
					}
				}
			}
		}
	}
	JOINT Spine_virtual
	{
		OFFSET 0.000000 0.000000 0.000000
		CHANNELS 3 Xrotation Yrotation Zrotation
		JOINT Spine
		{
			OFFSET 0.072000 7.257294 -0.789700
			CHANNELS 3 Xrotation Yrotation Zrotation
			JOINT Spine1
			{
				OFFSET 0.000000 12.508769 -0.658067
				CHANNELS 3 Xrotation Yrotation Zrotation
				JOINT Spine1_split
				{
					OFFSET 0.000000 12.508769 -0.658067
					CHANNELS 3 Xrotation Yrotation Zrotation
					JOINT Spine2
					{
						OFFSET 0.000000 12.508769 -0.658067
						CHANNELS 3 Xrotation Yrotation Zrotation
						JOINT Neck_virtual
						{
							OFFSET 0.000000 0.000000 0.000000
							CHANNELS 3 Xrotation Yrotation Zrotation
							JOINT Neck
							{
								OFFSET 0.000000 14.033295 7.520400
								CHANNELS 3 Xrotation Yrotation Zrotation
								JOINT Head
								{
									OFFSET 0.000000 8.198502 5.703100
									CHANNELS 3 Xrotation Yrotation Zrotation
									JOINT HeadTop_End
									{
										OFFSET 0.000000 17.760803 13.332701
										CHANNELS 3 Xrotation Yrotation Zrotation
										End Site
										{
											OFFSET 0 0 0
										}
									}
								}
							}
						}
						JOINT LeftShoulder_virtual
						{
							OFFSET 0.000000 0.000000 0.000000
							CHANNELS 3 Xrotation Yrotation Zrotation
							JOINT LeftShoulder
							{
								OFFSET 6.292450 5.785301 -0.669000
								CHANNELS 3 Xrotation Yrotation Zrotation
								JOINT LeftShoulder_split
								{
									OFFSET 6.292450 5.785301 -0.669000
									CHANNELS 3 Xrotation Yrotation Zrotation
									JOINT LeftArm
									{
										OFFSET 13.907140 -6.093903 1.965100
										CHANNELS 3 Xrotation Yrotation Zrotation
										JOINT LeftForeArm
										{
											OFFSET 34.140198 0.000000 0.000000
											CHANNELS 3 Xrotation Yrotation Zrotation
											JOINT LeftHand
											{
												OFFSET 40.960209 0.000000 0.000000
												CHANNELS 3 Xrotation Yrotation Zrotation
												End Site
												{
													OFFSET 0 0 0
												}
											}
										}
									}
								}
							}
						}
						JOINT RightShoulder_virtual
						{
							OFFSET 0.000000 0.000000 0.000000
							CHANNELS 3 Xrotation Yrotation Zrotation
							JOINT RightShoulder
							{
								OFFSET -6.292450 5.785301 -0.669000
								CHANNELS 3 Xrotation Yrotation Zrotation
								JOINT RightShoulder_split
								{
									OFFSET -6.292450 5.785301 -0.669000
									CHANNELS 3 Xrotation Yrotation Zrotation
									JOINT RightArm
									{
										OFFSET -13.907140 -6.093903 1.965100
										CHANNELS 3 Xrotation Yrotation Zrotation
										JOINT RightForeArm
										{
											OFFSET -34.140198 0.000000 0.000000
											CHANNELS 3 Xrotation Yrotation Zrotation
											JOINT RightHand
											{
												OFFSET -40.960209 0.000000 0.000000
												CHANNELS 3 Xrotation Yrotation Zrotation
												End Site
												{
													OFFSET 0 0 0
												}
											}
										}
									}
								}
							}
						}
					}
				}
			}
		}
	}
}
MOTION
Frames: 11
Frame Time: 0.03333333
0.918560 68.089310 6.336948 0.000000 0.000000 0.000000 -2.241063 3.886253 0.543415 -88.853316 -9.440520 8.577342 77.063023 6.196834 2.392102 19.864359 -6.763083 -6.162573 -5.356811 0.042944 -0.922224 0.000000 0.000000 0.000000 -2.708549 4.898248 0.787440 -88.622025 8.002490 -8.587090 79.658010 -3.584526 -2.886672 16.021775 2.537418 8.575327 2.232378 1.074383 0.852700 0.000000 0.000000 0.000000 -1.426749 -0.005052 -0.431067 10.438233 0.248190 -0.107146 0.222472 1.054369 -0.539546 0.943232 0.431616 0.124472 0.000000 0.000000 0.000000 -0.287683 0.533422 0.147742 -1.863648 -0.458306 -1.583960 -11.081858 -5.096898 -5.437302 0.000000 0.000000 0.000000 -0.824207 0.856087 -0.222473 1.638494 -16.555438 -2.996093 -1.072399 -0.100898 -1.431423 -0.008894 -17.277158 -59.096620 -2.235492 -52.638349 -1.881738 0.000000 0.000000 0.000000 0.232000 0.911340 0.282498 3.480797 -8.088622 8.724100 4.614249 3.107769 -3.725419 -9.046419 38.801844 72.479953 1.293164 60.868337 -2.996447 0.000000 0.000000 0.000000 
0.962470 68.078636 6.183041 0.000000 0.000000 0.000000 -2.077551 3.807771 0.538057 -88.937102 -9.548602 8.669471 76.984804 6.017912 2.363052 20.014893 -6.850157 -6.239999 -5.290326 0.076963 -0.988966 0.000000 0.000000 0.000000 -2.739349 4.984223 0.769725 -88.715230 8.045094 -8.485305 79.745423 -3.621630 -2.897109 16.372430 2.332810 8.568290 2.274279 1.048811 0.946549 0.000000 0.000000 0.000000 -1.458605 -0.073868 -0.359700 10.502835 0.221296 -0.117095 0.338115 1.058713 -0.571376 1.023818 0.479210 0.243443 0.000000 0.000000 0.000000 -0.048666 0.516319 0.185319 -1.824182 -0.526953 -1.445225 -11.133871 -5.452737 -5.388235 0.000000 0.000000 0.000000 -0.796478 0.906804 -0.197492 1.619010 -16.390622 -2.607413 -1.098155 -0.719675 -1.082388 -0.345961 -17.469640 -59.587192 -1.650933 -52.771691 -1.699415 0.000000 0.000000 0.000000 0.280216 0.873274 0.246438 3.408867 -8.045214 8.482750 4.443418 2.967926 -3.146737 -9.301033 39.031690 72.931735 1.229514 59.674099 -2.872435 0.000000 0.000000 0.000000 
0.967577 67.964294 6.110397 0.000000 0.000000 0.000000 -1.868113 3.674042 0.463945 -89.251803 -9.645799 8.833695 77.118703 5.987038 2.192920 20.121117 -6.546480 -6.306639 -5.091208 0.145357 -1.100728 0.000000 0.000000 0.000000 -2.700952 5.129180 0.674054 -88.873260 8.147701 -8.257940 80.091754 -3.559188 -3.015309 16.742349 2.021319 8.763128 1.945939 1.045024 0.926977 0.000000 0.000000 0.000000 -1.361581 -0.101293 -0.319551 10.742650 0.196355 -0.102628 0.633755 1.040815 -0.653941 1.029009 0.630277 0.291970 0.000000 0.000000 0.000000 0.309239 0.500394 0.158532 -1.521167 -0.700495 -1.214890 -11.642815 -5.883676 -5.147543 0.000000 0.000000 0.000000 -0.529224 0.938399 -0.227426 1.788326 -15.564171 -1.039402 -0.580527 -0.903647 -0.805638 -2.128745 -17.571140 -61.609857 -0.844931 -53.422229 -1.335894 0.000000 0.000000 0.000000 0.564342 0.824407 0.138081 3.286676 -8.166691 7.567296 4.329656 2.758529 -2.423757 -10.466701 39.310734 74.139969 0.918036 58.305739 -2.340488 0.000000 0.000000 0.000000 
0.909011 67.796883 6.105099 0.000000 0.000000 0.000000 -1.592075 3.553066 0.332929 -89.645864 -9.751046 8.937987 77.403754 6.055636 1.983197 20.008674 -5.935626 -6.415133 -4.811711 0.229913 -1.229147 0.000000 0.000000 0.000000 -2.533766 5.346676 0.557483 -89.064000 8.295739 -7.886083 80.346917 -3.467853 -3.262750 16.922926 1.601131 9.052419 1.404689 1.065942 0.804874 0.000000 0.000000 0.000000 -1.091491 -0.038651 -0.317246 11.122915 0.164564 -0.093982 1.072292 0.997457 -0.760709 1.029628 0.716942 0.201875 0.000000 0.000000 0.000000 0.757123 0.481029 0.081239 -0.979809 -0.921466 -0.909137 -12.533798 -6.258782 -4.817087 0.000000 0.000000 0.000000 -0.059687 0.928645 -0.280272 2.074694 -14.228799 1.448315 -0.054135 -0.659673 -0.613928 -5.037576 -17.589243 -64.853056 -0.001969 -54.280698 -0.902660 0.000000 0.000000 0.000000 1.044591 0.763793 -0.011151 3.159644 -8.492050 6.121147 4.409405 2.621570 -1.700179 -12.441624 39.503407 75.946861 0.536162 57.053895 -1.597580 0.000000 0.000000 0.000000 
0.851559 67.641853 6.150124 0.000000 0.000000 0.000000 -1.246580 3.499746 0.210995 -89.999183 -9.831116 8.923979 77.750564 6.091204 1.826589 19.619727 -5.243383 -6.718408 -4.565178 0.302454 -1.317045 0.000000 0.000000 0.000000 -2.252810 5.604761 0.468843 -89.290537 8.409215 -7.375050 80.341534 -3.436919 -3.611585 16.915800 1.015380 9.363604 0.905025 1.101429 0.629563 0.000000 0.000000 0.000000 -0.647541 0.149731 -0.333640 11.578038 0.113192 -0.134849 1.614567 0.935335 -0.854908 1.124713 0.448466 0.132905 0.000000 0.000000 0.000000 1.248066 0.452378 -0.017219 -0.233793 -1.178906 -0.539103 -13.617556 -6.408727 -4.491688 0.000000 0.000000 0.000000 0.579937 0.885184 -0.329210 2.385998 -12.554218 4.395042 0.212192 -0.262860 -0.785087 -8.551806 -17.595904 -68.764992 0.689800 -55.241576 -0.507346 0.000000 0.000000 0.000000 1.657486 0.698058 -0.162569 3.062771 -8.998198 4.387440 4.596386 2.615790 -1.093349 -14.879941 39.445992 78.205803 0.312705 56.111951 -0.888481 0.000000 0.000000 0.000000 
0.842740 67.543579 6.246624 0.000000 0.000000 0.000000 -0.799820 3.692227 0.162458 -90.299725 -9.822866 8.753732 78.087955 5.971439 1.751987 18.972826 -4.691197 -7.273948 -4.493603 0.340798 -1.296380 0.000000 0.000000 0.000000 -1.813244 5.899762 0.462937 -89.634068 8.490710 -6.776699 80.114356 -3.481285 -4.016061 16.903887 0.248643 9.800161 0.504603 1.125487 0.453787 0.000000 0.000000 0.000000 -0.038799 0.563655 -0.345048 12.023879 0.032000 -0.269705 2.223067 0.860888 -0.908214 1.113567 0.162238 -0.023032 0.000000 0.000000 0.000000 1.757296 0.424365 -0.109310 0.620301 -1.430076 -0.138592 -14.681128 -6.299642 -4.265410 0.000000 0.000000 0.000000 1.329810 0.833461 -0.366987 2.664017 -10.820475 7.299223 0.256892 0.073572 -1.302173 -11.943840 -17.539682 -72.721215 1.144110 -56.232784 -0.207579 0.000000 0.000000 0.000000 2.328279 0.641392 -0.283956 3.014518 -9.611682 2.620712 4.806486 2.702077 -0.625328 -17.462376 38.974197 80.715972 0.356466 55.522283 -0.392833 0.000000 0.000000 0.000000 
0.856478 67.509964 6.404312 0.000000 0.000000 0.000000 -0.175998 4.166432 0.202535 -90.598833 -9.624037 8.527397 78.362282 5.673582 1.730799 18.137058 -4.394606 -8.032433 -4.555900 0.344043 -1.156402 0.000000 0.000000 0.000000 -1.162955 6.315932 0.558441 -90.132276 8.574686 -6.167531 79.797790 -3.568462 -4.471014 17.012579 -0.656894 10.469769 0.024086 1.119645 0.303775 0.000000 0.000000 0.000000 0.738635 1.161278 -0.335505 12.452085 -0.088187 -0.504112 2.840577 0.798952 -0.923553 1.091346 -0.043677 -0.165561 0.000000 0.000000 0.000000 2.257019 0.418762 -0.186437 1.449998 -1.701328 0.203191 -15.544373 -6.038998 -4.171605 0.000000 0.000000 0.000000 2.119042 0.786287 -0.400513 2.891468 -9.284131 9.737167 0.289862 0.225373 -1.642346 -14.681275 -17.365732 -76.301239 1.466045 -57.391170 0.096665 0.000000 0.000000 0.000000 3.003239 0.634414 -0.369172 2.997438 -10.221990 1.005131 4.849659 2.824245 -0.281415 -19.907315 37.980988 83.211696 0.613413 55.261828 -0.155454 0.000000 0.000000 0.000000 
0.927552 67.512947 6.759178 0.000000 0.000000 0.000000 0.684875 4.800325 0.314263 -91.025631 -9.239656 8.376482 78.555850 5.275672 1.672570 17.152842 -4.283732 -8.854718 -4.607065 0.326696 -0.947869 0.000000 0.000000 0.000000 -0.213917 6.783723 0.713641 -90.774737 8.660845 -5.596850 79.602406 -3.683059 -4.940837 17.097968 -1.677410 11.295336 -0.508501 1.070447 0.193579 0.000000 0.000000 0.000000 1.687859 1.867631 -0.284626 12.859993 -0.243107 -0.798569 3.392518 0.782000 -0.920306 1.077068 -0.229265 -0.256868 0.000000 0.000000 0.000000 2.724317 0.457361 -0.247402 2.103576 -2.000811 0.421288 -16.041389 -5.723847 -4.178224 0.000000 0.000000 0.000000 2.866467 0.772476 -0.446036 3.075472 -8.142041 11.464960 0.361353 0.171988 -1.604078 -16.341035 -16.991820 -79.121656 1.706977 -58.944614 0.466224 0.000000 0.000000 0.000000 3.639672 0.694447 -0.420136 2.971890 -10.752602 -0.350136 4.596204 2.906415 -0.058640 -21.847970 36.561706 85.397999 0.951182 55.255961 -0.147311 0.000000 0.000000 0.000000 
1.030786 67.571220 7.426651 0.000000 0.000000 0.000000 1.891477 5.466495 0.446686 -91.634467 -8.736597 8.412610 78.717254 4.898858 1.519379 16.041567 -4.208041 -9.553543 -4.528194 0.304064 -0.745902 0.000000 0.000000 0.000000 1.136094 7.254773 0.837026 -91.547525 8.765204 -5.112654 79.801424 -3.850103 -5.348004 16.933811 -2.832468 11.997750 -0.613791 0.995340 0.130508 0.000000 0.000000 0.000000 2.920417 2.599489 -0.216695 13.223504 -0.406596 -1.088581 3.840421 0.828780 -0.913572 0.923574 -0.439738 -0.319581 0.000000 0.000000 0.000000 3.127816 0.535656 -0.300003 2.485649 -2.302152 0.483976 -16.099745 -5.548826 -4.241269 0.000000 0.000000 0.000000 3.468640 0.793094 -0.518238 3.249897 -7.552305 12.445205 0.449033 0.089324 -1.243971 -17.079026 -16.293582 -81.120757 2.007005 -60.855476 0.972941 0.000000 0.000000 0.000000 4.179582 0.814523 -0.451356 2.914595 -11.141020 -1.430234 4.293969 2.817137 0.075091 -23.068947 35.031589 86.960500 1.175447 55.550704 -0.237454 0.000000 0.000000 0.000000 
1.140788 67.721596 8.544605 0.000000 0.000000 0.000000 3.472164 6.026970 0.520525 -92.426851 -8.211070 8.666909 78.942268 4.605048 1.313193 14.805960 -4.050929 -10.033468 -4.285878 0.279344 -0.604655 0.000000 0.000000 0.000000 2.901431 7.652884 0.859027 -92.428941 8.832678 -4.786104 80.486369 -4.070061 -5.617732 16.356285 -4.090672 12.439222 -0.071343 0.922491 0.110965 0.000000 0.000000 0.000000 4.521049 3.269852 -0.191305 13.525708 -0.560027 -1.302932 4.161593 0.906388 -0.905556 0.790619 -0.673808 -0.191471 0.000000 0.000000 0.000000 3.418760 0.616022 -0.350400 2.567898 -2.588774 0.412396 -15.746783 -5.634223 -4.293786 0.000000 0.000000 0.000000 3.898797 0.821103 -0.599303 3.430174 -7.497318 12.822524 0.496179 -0.013084 -0.764848 -16.997653 -15.111706 -82.382655 2.450519 -63.091099 1.690053 0.000000 0.000000 0.000000 4.574369 0.933546 -0.474596 2.850309 -11.306946 -2.207564 3.917713 2.597974 0.016557 -23.324855 33.782198 87.782937 1.199707 56.232599 -0.313854 0.000000 0.000000 0.000000 
1.187520 68.076042 10.197544 0.000000 0.000000 0.000000 5.435289 6.460174 0.480518 -93.255954 -7.763165 9.101132 79.270021 4.417139 1.142584 13.428059 -3.790892 -10.270446 -3.998485 0.242582 -0.520118 0.000000 0.000000 0.000000 5.005326 7.924490 0.760650 -93.384477 8.855985 -4.643878 81.592012 -4.270376 -5.756080 15.343569 -5.302818 12.780856 0.723340 0.863222 0.105892 0.000000 0.000000 0.000000 6.548913 3.849942 -0.266048 13.722374 -0.674704 -1.388705 4.351784 0.980197 -0.898028 0.622304 -0.935726 0.035193 0.000000 0.000000 0.000000 3.571380 0.669315 -0.398169 2.307664 -2.823426 0.239592 -15.076591 -5.918003 -4.311566 0.000000 0.000000 0.000000 4.126015 0.825805 -0.667395 3.644848 -8.006360 12.843991 0.417877 0.019692 -0.399221 -16.288096 -13.329180 -83.028715 2.654725 -65.413459 2.219180 0.000000 0.000000 0.000000 4.758424 1.000199 -0.489648 2.823765 -11.166948 -2.631476 3.659212 2.215268 -0.308542 -22.604011 33.038315 87.893272 0.982907 57.439405 -0.247157 0.000000 0.000000 0.000000 
